<svg width="416" height="416" viewBox="0 0 416 416" fill="none" xmlns="http://www.w3.org/2000/svg">
<path d="M139.038 279H120.038V416H139.038V279Z" fill="#632342"/>
<path d="M218.038 256H199.038V416H218.038V256Z" fill="#632342"/>
<path d="M60.038 365H42.038V416H60.038V365Z" fill="#632342"/>
<path d="M296.039 198H277.039V416H296.039V198Z" fill="#632342"/>
<path d="M374.039 146H356.039V416H374.039V146Z" fill="#632342"/>
<path d="M399.939 2.7C397.939 1 395.439 0 392.739 0H324.239C318.739 0 314.239 4.5 314.239 10C314.239 15.5 318.739 20 324.239 20L368.439 19.9L260.339 128.1L222.439 90C220.539 88.1 218.039 87 215.339 86.9C212.639 87 210.139 88.1 208.239 90L16.239 282.2C12.239 286 12.139 292.4 15.939 296.4C19.739 300.4 26.139 300.5 30.139 296.7C30.239 296.6 30.339 296.5 30.439 296.5L215.439 111.5L253.339 149.3C255.239 151.1 257.739 152.1 260.439 152.1C263.039 152.1 265.639 151.1 267.539 149.3L382.838 34L382.738 78.1C382.738 83.6 387.138 88 392.638 88H392.738C398.238 88.1 402.638 83.7 402.738 78.2C402.738 78.2 402.738 78.2 402.738 78.1L402.838 9.7C402.839 7.1 401.739 4.6 399.939 2.7Z" fill="#632342"/>
</svg>
